<svg width="34" height="31" viewBox="0 0 34 31" fill="none" xmlns="http://www.w3.org/2000/svg">
<path d="M17 30.9719L15.0554 29.2219C12.1615 26.5808 9.76915 24.3025 7.87831 22.3869C5.9872 20.4714 4.48151 18.7566 3.36123 17.2428C2.24067 15.7289 1.45595 14.3516 1.00706 13.1111C0.557896 11.8703 0.333313 10.6109 0.333313 9.33317C0.333313 6.79317 1.18512 4.67206 2.88873 2.96984C4.59262 1.26762 6.70373 0.416504 9.22206 0.416504C10.7593 0.416504 12.1946 0.76831 13.5279 1.47192C14.8612 2.17581 16.0186 3.18512 17 4.49984C18.0925 3.12956 19.2915 2.10637 20.5971 1.43025C21.9026 0.754421 23.2962 0.416504 24.7779 0.416504C27.2962 0.416504 29.4073 1.26762 31.1112 2.96984C32.8148 4.67206 33.6667 6.79317 33.6667 9.33317C33.6667 10.6109 33.4421 11.8703 32.9929 13.1111C32.544 14.3516 31.7593 15.7289 30.6387 17.2428C29.5185 18.7566 28.0128 20.4714 26.1216 22.3869C24.2308 24.3025 21.8385 26.5808 18.9446 29.2219L17 30.9719ZM17 27.2778C19.7636 24.7591 22.0379 22.5994 23.8229 20.7986C25.6076 18.9975 27.0232 17.4233 28.0696 16.0761C29.1157 14.7289 29.8471 13.5286 30.2637 12.4753C30.6804 11.4219 30.8887 10.3759 30.8887 9.33734C30.8887 7.55678 30.3147 6.08775 29.1666 4.93025C28.0186 3.77303 26.5578 3.19442 24.7841 3.19442C23.3947 3.19442 22.1087 3.60873 20.9262 4.43734C19.744 5.26595 18.8335 6.39789 18.1946 7.83317H15.7779C15.1573 6.4165 14.256 5.28914 13.0737 4.45109C11.8912 3.61331 10.6053 3.19442 9.21581 3.19442C7.4422 3.19442 5.98137 3.77303 4.83331 4.93025C3.68526 6.08775 3.11123 7.55831 3.11123 9.34192C3.11123 10.3825 3.31956 11.4328 3.73623 12.4928C4.1529 13.553 4.88429 14.7614 5.9304 16.1178C6.97679 17.4744 8.39818 19.0486 10.1946 20.8403C11.9907 22.6319 14.2591 24.7778 17 27.2778Z" fill="#E2DFDF"/>
</svg>
