<svg width="32" height="32" viewBox="0 0 32 32" fill="none" xmlns="http://www.w3.org/2000/svg">
<path d="M6.66667 28C5.93333 28 5.3 27.7444 4.76667 27.2333C4.25556 26.7 4 26.0667 4 25.3333V6.66667C4 5.93333 4.25556 5.31111 4.76667 4.8C5.3 4.26667 5.93333 4 6.66667 4H25.3333C26.0667 4 26.6889 4.26667 27.2 4.8C27.7333 5.31111 28 5.93333 28 6.66667V25.3333C28 26.0667 27.7333 26.7 27.2 27.2333C26.6889 27.7444 26.0667 28 25.3333 28H6.66667ZM6.66667 25.3333H25.3333V6.66667H6.66667V25.3333ZM8 22.6667H24L19 16L15 21.3333L12 17.3333L8 22.6667ZM6.66667 25.3333V6.66667V25.3333Z" fill="#1D1B20"/>
</svg>
